<svg width="24" height="21" viewBox="0 0 24 21" fill="none" xmlns="http://www.w3.org/2000/svg">
<path fill-rule="evenodd" clip-rule="evenodd" d="M1.24067 1.3492C1.4737 0.848479 2.00253 0.733935 2.42185 1.09336L22.2551 18.0933C22.6745 18.4527 22.8255 19.15 22.5925 19.6507C22.3595 20.1515 21.8306 20.266 21.4113 19.9066L1.57801 2.90662C1.15868 2.5472 1.00765 1.84992 1.24067 1.3492Z" fill="#171717"/>
<path fill-rule="evenodd" clip-rule="evenodd" d="M1.24077 19.6508C1.00775 19.1501 1.15878 18.4528 1.5781 18.0933L21.4114 1.09338C21.8307 0.733962 22.3596 0.848505 22.5926 1.34922C22.8256 1.84994 22.6746 2.54723 22.2552 2.90665L2.42195 19.9066C2.00262 20.266 1.47379 20.1515 1.24077 19.6508Z" fill="#171717"/>
</svg>
